<svg width="41" height="40" viewBox="0 0 41 40" fill="none" xmlns="http://www.w3.org/2000/svg">
<path d="M13.4254 21.7476C13.3537 21.529 13.1498 21.3811 12.9197 21.3807L8.1414 21.3722C7.91133 21.3717 7.70692 21.5189 7.63435 21.7372L7.02949 23.5568C6.95692 23.7751 6.75251 23.9223 6.52244 23.9219L3.09742 23.9158C2.72713 23.9151 2.47018 23.5466 2.59763 23.1989L7.93942 8.62625C8.01656 8.41583 8.21701 8.27608 8.44113 8.27648L12.7106 8.2841C12.935 8.2845 13.1351 8.42527 13.2113 8.63629L18.4804 23.2279C18.606 23.5759 18.3478 23.943 17.9778 23.9424L14.5296 23.9362C14.2995 23.9358 14.0956 23.7879 14.0238 23.5693L13.4254 21.7476ZM11.4835 18.0486C11.8475 18.0492 12.1052 17.693 11.9907 17.3475L11.0521 14.5149C10.8906 14.0273 10.2009 14.0274 10.0395 14.515L9.10324 17.3443C8.98915 17.6891 9.24547 18.0446 9.60861 18.0452L11.4835 18.0486Z" fill="url(#paint0_linear_1731_80317)"/>
<path d="M32.5391 13.5358C32.5374 14.4829 32.3139 15.3481 31.8686 16.1316C31.4381 16.9004 30.7785 17.5207 29.8897 17.9927C29.0158 18.4498 27.9426 18.6773 26.67 18.675L25.0502 18.6721C24.7556 18.6716 24.5164 18.9099 24.5159 19.2045L24.5084 23.4207C24.5079 23.7152 24.2687 23.9536 23.9741 23.9531L20.6902 23.9472C20.3956 23.9467 20.1573 23.7075 20.1578 23.4129L20.1838 8.83078C20.1844 8.53623 20.4236 8.29787 20.7181 8.2984L26.6885 8.30906C27.9463 8.3113 29.0114 8.53518 29.8836 8.98067C30.7707 9.4262 31.4355 10.0415 31.8781 10.8266C32.3206 11.6117 32.541 12.5147 32.5391 13.5358ZM26.2544 15.2115C27.4826 15.2137 28.0978 14.6525 28.0998 13.5279C28.1018 12.3884 27.4887 11.8176 26.2605 11.8154L25.0624 11.8133C24.7679 11.8127 24.5287 12.0511 24.5282 12.3457L24.524 14.6751C24.5235 14.9697 24.7618 15.2089 25.0564 15.2094L26.2544 15.2115Z" fill="url(#paint1_linear_1731_80317)"/>
<path d="M38.1135 8.32946C38.4081 8.32998 38.6464 8.56919 38.6459 8.86374L38.6199 23.4459C38.6194 23.7404 38.3802 23.9788 38.0856 23.9783L34.8017 23.9724C34.5071 23.9719 34.2688 23.7327 34.2693 23.4381L34.2953 8.85598C34.2959 8.56142 34.5351 8.32307 34.8296 8.3236L38.1135 8.32946Z" fill="url(#paint2_linear_1731_80317)"/>
<path d="M13.4254 23.5874C13.3537 23.3688 13.1498 23.2209 12.9197 23.2205L8.1414 23.212C7.91133 23.2116 7.70692 23.3588 7.63435 23.5771L7.02949 25.3967C6.95692 25.615 6.75251 25.7622 6.52244 25.7618L3.09742 25.7556C2.72713 25.755 2.47018 25.3864 2.59763 25.0388L7.93942 10.4661C8.01656 10.2557 8.21701 10.1159 8.44113 10.1163L12.7106 10.1239C12.935 10.1243 13.1351 10.2651 13.2113 10.4761L18.4804 25.0677C18.606 25.4158 18.3478 25.7829 17.9778 25.7822L14.5296 25.7761C14.2995 25.7756 14.0956 25.6277 14.0238 25.4091L13.4254 23.5874ZM11.4835 19.8884C11.8475 19.8891 12.1052 19.5329 11.9907 19.1873L11.0521 16.3547C10.8906 15.8672 10.2009 15.8673 10.0395 16.3549L9.10324 19.1842C8.98915 19.5289 9.24547 19.8844 9.60861 19.8851L11.4835 19.8884Z" fill="url(#paint3_linear_1731_80317)"/>
<path d="M32.5391 15.3756C32.5374 16.3227 32.3139 17.188 31.8686 17.9715C31.4381 18.7402 30.7785 19.3605 29.8897 19.8325C29.0158 20.2897 27.9426 20.5171 26.67 20.5149L25.0502 20.512C24.7556 20.5114 24.5164 20.7498 24.5159 21.0443L24.5084 25.2605C24.5079 25.5551 24.2687 25.7934 23.9741 25.7929L20.6902 25.7871C20.3956 25.7865 20.1573 25.5473 20.1578 25.2528L20.1838 10.6706C20.1844 10.3761 20.4236 10.1377 20.7181 10.1382L26.6885 10.1489C27.9463 10.1511 29.0114 10.375 29.8836 10.8205C30.7707 11.266 31.4355 11.8813 31.8781 12.6664C32.3206 13.4515 32.541 14.3546 32.5391 15.3756ZM26.2544 17.0514C27.4826 17.0536 28.0978 16.4924 28.0998 15.3677C28.1018 14.2283 27.4887 13.6575 26.2605 13.6553L25.0624 13.6531C24.7679 13.6526 24.5287 13.8909 24.5282 14.1855L24.524 16.515C24.5235 16.8095 24.7618 17.0487 25.0564 17.0492L26.2544 17.0514Z" fill="url(#paint4_linear_1731_80317)"/>
<path d="M38.1135 10.1693C38.4081 10.1698 38.6464 10.409 38.6459 10.7036L38.6199 25.2857C38.6194 25.5803 38.3802 25.8186 38.0856 25.8181L34.8017 25.8122C34.5071 25.8117 34.2688 25.5725 34.2693 25.278L34.2953 10.6958C34.2959 10.4013 34.5351 10.1629 34.8296 10.1634L38.1135 10.1693Z" fill="url(#paint5_linear_1731_80317)"/>
<path d="M13.4254 25.4292C13.3537 25.2106 13.1498 25.0627 12.9197 25.0623L8.1414 25.0538C7.91133 25.0534 7.70692 25.2006 7.63435 25.4189L7.02949 27.2385C6.95692 27.4568 6.75251 27.604 6.52244 27.6036L3.09742 27.5974C2.72713 27.5968 2.47018 27.2282 2.59763 26.8805L7.93942 12.3079C8.01656 12.0975 8.21701 11.9577 8.44113 11.9581L12.7106 11.9657C12.935 11.9661 13.1351 12.1069 13.2113 12.3179L18.4804 26.9095C18.606 27.2576 18.3478 27.6247 17.9778 27.624L14.5296 27.6178C14.2995 27.6174 14.0956 27.4695 14.0238 27.2509L13.4254 25.4292ZM11.4835 21.7302C11.8475 21.7309 12.1052 21.3747 11.9907 21.0291L11.0521 18.1965C10.8906 17.709 10.2009 17.7091 10.0395 18.1967L9.10324 21.026C8.98915 21.3707 9.24547 21.7262 9.60861 21.7269L11.4835 21.7302Z" fill="url(#paint6_linear_1731_80317)"/>
<path d="M32.5391 17.2174C32.5374 18.1645 32.3139 19.0298 31.8686 19.8133C31.4381 20.582 30.7785 21.2023 29.8897 21.6743C29.0158 22.1315 27.9426 22.3589 26.67 22.3566L25.0502 22.3538C24.7556 22.3532 24.5164 22.5916 24.5159 22.8861L24.5084 27.1023C24.5079 27.3969 24.2687 27.6352 23.9741 27.6347L20.6902 27.6288C20.3956 27.6283 20.1573 27.3891 20.1578 27.0946L20.1838 12.5124C20.1844 12.2179 20.4236 11.9795 20.7181 11.98L26.6885 11.9907C27.9463 11.9929 29.0114 12.2168 29.8836 12.6623C30.7707 13.1078 31.4355 13.7231 31.8781 14.5082C32.3206 15.2933 32.541 16.1964 32.5391 17.2174ZM26.2544 18.8932C27.4826 18.8954 28.0978 18.3341 28.0998 17.2095C28.1018 16.0701 27.4887 15.4992 26.2605 15.4971L25.0624 15.4949C24.7679 15.4944 24.5287 15.7327 24.5282 16.0273L24.524 18.3568C24.5235 18.6513 24.7618 18.8905 25.0564 18.891L26.2544 18.8932Z" fill="url(#paint7_linear_1731_80317)"/>
<path d="M38.1135 12.0111C38.4081 12.0116 38.6464 12.2508 38.6459 12.5454L38.6199 27.1275C38.6194 27.4221 38.3802 27.6604 38.0856 27.6599L34.8017 27.654C34.5071 27.6535 34.2688 27.4143 34.2693 27.1198L34.2953 12.5376C34.2959 12.2431 34.5351 12.0047 34.8296 12.0052L38.1135 12.0111Z" fill="url(#paint8_linear_1731_80317)"/>
<g style="mix-blend-mode:lighten">
<path d="M36.8524 27.3331C35.9688 26.5281 33.8162 25.8177 32.8503 25.5631C34.3665 28.6647 37.2457 34.4935 36.6329 32.997C35.8669 31.1262 37.9568 28.3394 36.8524 27.3331Z" fill="url(#paint9_linear_1731_80317)"/>
</g>
<g style="mix-blend-mode:lighten" opacity="0.2">
<path d="M34.2279 21.5637C35.6109 20.3037 38.9802 19.1918 40.492 18.7933C38.1188 23.6478 33.6122 32.7713 34.5714 30.4288C35.7704 27.5007 32.4992 23.1388 34.2279 21.5637Z" fill="url(#paint10_linear_1731_80317)"/>
</g>
<path d="M13.4254 27.2691C13.3537 27.0505 13.1498 26.9026 12.9197 26.9022L8.1414 26.8936C7.91133 26.8932 7.70692 27.0404 7.63435 27.2587L7.02949 29.0783C6.95692 29.2966 6.75251 29.4438 6.52244 29.4434L3.09742 29.4373C2.72713 29.4366 2.47018 29.0681 2.59763 28.7204L7.93942 14.1477C8.01656 13.9373 8.21701 13.7976 8.44113 13.798L12.7106 13.8056C12.935 13.806 13.1351 13.9468 13.2113 14.1578L18.4804 28.7494C18.606 29.0974 18.3478 29.4645 17.9778 29.4639L14.5296 29.4577C14.2995 29.4573 14.0956 29.3094 14.0238 29.0908L13.4254 27.2691ZM11.4835 23.5701C11.8475 23.5707 12.1052 23.2145 11.9907 22.869L11.0521 20.0363C10.8906 19.5488 10.2009 19.5489 10.0395 20.0365L9.10324 22.8658C8.98915 23.2106 9.24547 23.5661 9.60861 23.5667L11.4835 23.5701Z" fill="url(#paint11_linear_1731_80317)"/>
<path d="M32.5391 19.0573C32.5374 20.0043 32.3139 20.8696 31.8686 21.6531C31.4381 22.4218 30.7785 23.0422 29.8897 23.5141C29.0158 23.9713 27.9426 24.1988 26.67 24.1965L25.0502 24.1936C24.7556 24.1931 24.5164 24.4314 24.5159 24.726L24.5084 28.9422C24.5079 29.2367 24.2687 29.4751 23.9741 29.4746L20.6902 29.4687C20.3956 29.4682 20.1573 29.229 20.1578 28.9344L20.1838 14.3523C20.1844 14.0577 20.4236 13.8194 20.7181 13.8199L26.6885 13.8305C27.9463 13.8328 29.0114 14.0567 29.8836 14.5022C30.7707 14.9477 31.4355 15.563 31.8781 16.3481C32.3206 17.1331 32.541 18.0362 32.5391 19.0573ZM26.2544 20.733C27.4826 20.7352 28.0978 20.174 28.0998 19.0494C28.1018 17.9099 27.4887 17.3391 26.2605 17.3369L25.0624 17.3348C24.7679 17.3342 24.5287 17.5726 24.5282 17.8671L24.524 20.1966C24.5235 20.4912 24.7618 20.7304 25.0564 20.7309L26.2544 20.733Z" fill="url(#paint12_linear_1731_80317)"/>
<path d="M38.1135 13.8509C38.4081 13.8515 38.6464 14.0907 38.6459 14.3852L38.6199 28.9674C38.6194 29.2619 38.3802 29.5003 38.0856 29.4998L34.8017 29.4939C34.5071 29.4934 34.2688 29.2542 34.2693 28.9596L34.2953 14.3775C34.2959 14.0829 34.5351 13.8446 34.8296 13.8451L38.1135 13.8509Z" fill="url(#paint13_linear_1731_80317)"/>
<path d="M13.4254 29.1089C13.3537 28.8903 13.1498 28.7424 12.9197 28.742L8.1414 28.7335C7.91133 28.7331 7.70692 28.8802 7.63435 29.0986L7.02949 30.9181C6.95692 31.1365 6.75251 31.2837 6.52244 31.2832L3.09742 31.2771C2.72713 31.2765 2.47018 30.9079 2.59763 30.5602L7.93942 15.9876C8.01656 15.7772 8.21701 15.6374 8.44113 15.6378L12.7106 15.6454C12.935 15.6458 13.1351 15.7866 13.2113 15.9976L18.4804 30.5892C18.606 30.9372 18.3478 31.3044 17.9778 31.3037L14.5296 31.2975C14.2995 31.2971 14.0956 31.1492 14.0238 30.9306L13.4254 29.1089ZM11.4835 25.4099C11.8475 25.4106 12.1052 25.0544 11.9907 24.7088L11.0521 21.8762C10.8906 21.3886 10.2009 21.3888 10.0395 21.8764L9.10324 24.7057C8.98915 25.0504 9.24547 25.4059 9.60861 25.4066L11.4835 25.4099Z" fill="url(#paint14_linear_1731_80317)"/>
<path d="M32.5391 20.8971C32.5374 21.8442 32.3139 22.7095 31.8686 23.493C31.4381 24.2617 30.7785 24.882 29.8897 25.354C29.0158 25.8112 27.9426 26.0386 26.67 26.0363L25.0502 26.0334C24.7556 26.0329 24.5164 26.2713 24.5159 26.5658L24.5084 30.782C24.5079 31.0766 24.2687 31.3149 23.9741 31.3144L20.6902 31.3085C20.3956 31.308 20.1573 31.0688 20.1578 30.7743L20.1838 16.1921C20.1844 15.8976 20.4236 15.6592 20.7181 15.6597L26.6885 15.6704C27.9463 15.6726 29.0114 15.8965 29.8836 16.342C30.7707 16.7875 31.4355 17.4028 31.8781 18.1879C32.3206 18.973 32.541 19.8761 32.5391 20.8971ZM26.2544 22.5729C27.4826 22.5751 28.0978 22.0138 28.0998 20.8892C28.1018 19.7498 27.4887 19.1789 26.2605 19.1767L25.0624 19.1746C24.7679 19.1741 24.5287 19.4124 24.5282 19.707L24.524 22.0364C24.5235 22.331 24.7618 22.5702 25.0564 22.5707L26.2544 22.5729Z" fill="url(#paint15_linear_1731_80317)"/>
<path d="M38.1135 15.6908C38.4081 15.6913 38.6464 15.9305 38.6459 16.2251L38.6199 30.8072C38.6194 31.1018 38.3802 31.3401 38.0856 31.3396L34.8017 31.3337C34.5071 31.3332 34.2688 31.094 34.2693 30.7994L34.2953 16.2173C34.2959 15.9228 34.5351 15.6844 34.8296 15.6849L38.1135 15.6908Z" fill="url(#paint16_linear_1731_80317)"/>
<g filter="url(#filter0_f_1731_80317)">
<path d="M13.4339 29.1243C13.3617 28.9058 13.1576 28.7583 12.9275 28.7583H8.14917C7.9191 28.7583 7.71495 28.9058 7.64277 29.1243L7.04116 30.9449C6.96898 31.1634 6.76484 31.3109 6.53476 31.3109H3.10974C2.73945 31.3109 2.48184 30.9428 2.60866 30.5949L7.92443 16.0128C8.00119 15.8022 8.2014 15.6621 8.42551 15.6621H12.695C12.9194 15.6621 13.1198 15.8025 13.1963 16.0134L18.4914 30.5956C18.6177 30.9434 18.3601 31.3109 17.9901 31.3109H14.5419C14.3118 31.3109 14.1077 31.1634 14.0355 30.9449L13.4339 29.1243Z" fill="url(#paint17_linear_1731_80317)"/>
<path d="M32.5329 20.8784C32.5329 21.8255 32.3109 22.6911 31.867 23.4754C31.4378 24.2449 30.7793 24.8664 29.8914 25.34C29.0184 25.7987 27.9455 26.0281 26.6729 26.0281H25.0531C24.7586 26.0281 24.5198 26.2669 24.5198 26.5614V30.7776C24.5198 31.0722 24.281 31.3109 23.9865 31.3109H20.7025C20.408 31.3109 20.1692 31.0722 20.1692 30.7776V16.1954C20.1692 15.9009 20.408 15.6621 20.7025 15.6621H26.6729C27.9307 15.6621 28.9962 15.8841 29.8692 16.328C30.7571 16.772 31.423 17.3861 31.867 18.1704C32.3109 18.9547 32.5329 19.8573 32.5329 20.8784Z" fill="url(#paint18_linear_1731_80317)"/>
<path d="M38.098 15.6621C38.3925 15.6621 38.6313 15.9009 38.6313 16.1954V30.7776C38.6313 31.0722 38.3925 31.3109 38.098 31.3109H34.814C34.5195 31.3109 34.2807 31.0722 34.2807 30.7776V16.1954C34.2807 15.9009 34.5195 15.6621 34.814 15.6621H38.098Z" fill="url(#paint19_linear_1731_80317)"/>
</g>
<g filter="url(#filter1_f_1731_80317)">
<circle cx="12.859" cy="14.0356" r="0.438157" transform="rotate(76.5922 12.859 14.0356)" fill="white"/>
</g>
<g filter="url(#filter2_f_1731_80317)">
<circle cx="5.47396" cy="4.0013" r="1.33333" fill="url(#paint20_linear_1731_80317)"/>
</g>
<g filter="url(#filter3_f_1731_80317)">
<circle cx="3.79971" cy="5.26096" r="0.602519" transform="rotate(76.5922 3.79971 5.26096)" fill="url(#paint21_linear_1731_80317)"/>
</g>
<g filter="url(#filter4_f_1731_80317)">
<circle cx="29.2581" cy="34.8004" r="1.11924" transform="rotate(165 29.2581 34.8004)" fill="url(#paint22_linear_1731_80317)"/>
</g>
<g filter="url(#filter5_f_1731_80317)">
<circle cx="30.341" cy="33.4141" r="0.50577" transform="rotate(-118.408 30.341 33.4141)" fill="url(#paint23_linear_1731_80317)"/>
</g>
<g style="mix-blend-mode:lighten">
<path d="M14.8654 16.0071C14.8654 14.776 13.9253 12.6443 13.4552 11.7324C12.1626 15.0382 9.75368 21.2734 10.4587 19.7688C11.3401 17.8879 14.8654 17.5459 14.8654 16.0071Z" fill="url(#paint24_linear_1731_80317)"/>
</g>
<g style="mix-blend-mode:lighten" opacity="0.3">
<path d="M3.75878 16.2453C4.05508 14.6756 5.73084 12.1773 6.53168 11.1243C7.33477 15.6409 8.8135 24.1534 8.30361 22.0703C7.66626 19.4665 3.3884 18.2074 3.75878 16.2453Z" fill="url(#paint25_linear_1731_80317)"/>
</g>
<g style="mix-blend-mode:lighten">
<path d="M17.0815 27.7136C17.5834 25.8402 17.0649 22.2248 16.7429 20.6513C13.4871 25.1702 7.38899 33.7054 9.04322 31.6947C11.111 29.1812 16.4541 30.0552 17.0815 27.7136Z" fill="url(#paint26_linear_1731_80317)"/>
</g>
<defs>
<filter id="filter0_f_1731_80317" x="0.440885" y="13.5288" width="40.3253" height="19.9151" filterUnits="userSpaceOnUse" color-interpolation-filters="sRGB">
<feFlood flood-opacity="0" result="BackgroundImageFix"/>
<feBlend mode="normal" in="SourceGraphic" in2="BackgroundImageFix" result="shape"/>
<feGaussianBlur stdDeviation="1.06667" result="effect1_foregroundBlur_1731_80317"/>
</filter>
<filter id="filter1_f_1731_80317" x="11.0885" y="12.2643" width="3.54167" height="3.54362" filterUnits="userSpaceOnUse" color-interpolation-filters="sRGB">
<feFlood flood-opacity="0" result="BackgroundImageFix"/>
<feBlend mode="normal" in="SourceGraphic" in2="BackgroundImageFix" result="shape"/>
<feGaussianBlur stdDeviation="0.666667" result="effect1_foregroundBlur_1731_80317"/>
</filter>
<filter id="filter2_f_1731_80317" x="2.80729" y="1.33464" width="5.33464" height="5.33268" filterUnits="userSpaceOnUse" color-interpolation-filters="sRGB">
<feFlood flood-opacity="0" result="BackgroundImageFix"/>
<feBlend mode="normal" in="SourceGraphic" in2="BackgroundImageFix" result="shape"/>
<feGaussianBlur stdDeviation="0.666667" result="effect1_foregroundBlur_1731_80317"/>
</filter>
<filter id="filter3_f_1731_80317" x="1.86198" y="3.32487" width="3.8737" height="3.87174" filterUnits="userSpaceOnUse" color-interpolation-filters="sRGB">
<feFlood flood-opacity="0" result="BackgroundImageFix"/>
<feBlend mode="normal" in="SourceGraphic" in2="BackgroundImageFix" result="shape"/>
<feGaussianBlur stdDeviation="0.666667" result="effect1_foregroundBlur_1731_80317"/>
</filter>
<filter id="filter4_f_1731_80317" x="26.8034" y="32.3483" width="4.90885" height="4.90495" filterUnits="userSpaceOnUse" color-interpolation-filters="sRGB">
<feFlood flood-opacity="0" result="BackgroundImageFix"/>
<feBlend mode="normal" in="SourceGraphic" in2="BackgroundImageFix" result="shape"/>
<feGaussianBlur stdDeviation="0.666667" result="effect1_foregroundBlur_1731_80317"/>
</filter>
<filter id="filter5_f_1731_80317" x="28.5026" y="31.5749" width="3.67839" height="3.67839" filterUnits="userSpaceOnUse" color-interpolation-filters="sRGB">
<feFlood flood-opacity="0" result="BackgroundImageFix"/>
<feBlend mode="normal" in="SourceGraphic" in2="BackgroundImageFix" result="shape"/>
<feGaussianBlur stdDeviation="0.666667" result="effect1_foregroundBlur_1731_80317"/>
</filter>
<linearGradient id="paint0_linear_1731_80317" x1="20.5051" y1="8.29802" x2="20.4755" y2="24.841" gradientUnits="userSpaceOnUse">
<stop stop-color="#D3FF21"/>
<stop offset="0.145833" stop-color="#5BFF21"/>
<stop offset="0.666667" stop-color="#21BCFF"/>
<stop offset="1" stop-color="#4021FF"/>
</linearGradient>
<linearGradient id="paint1_linear_1731_80317" x1="20.5051" y1="8.29802" x2="20.4755" y2="24.841" gradientUnits="userSpaceOnUse">
<stop stop-color="#D3FF21"/>
<stop offset="0.145833" stop-color="#5BFF21"/>
<stop offset="0.666667" stop-color="#21BCFF"/>
<stop offset="1" stop-color="#4021FF"/>
</linearGradient>
<linearGradient id="paint2_linear_1731_80317" x1="20.5051" y1="8.29802" x2="20.4755" y2="24.841" gradientUnits="userSpaceOnUse">
<stop stop-color="#D3FF21"/>
<stop offset="0.145833" stop-color="#5BFF21"/>
<stop offset="0.666667" stop-color="#21BCFF"/>
<stop offset="1" stop-color="#4021FF"/>
</linearGradient>
<linearGradient id="paint3_linear_1731_80317" x1="20.5051" y1="10.1379" x2="20.4755" y2="26.6809" gradientUnits="userSpaceOnUse">
<stop stop-color="#D3FF21"/>
<stop offset="0.145833" stop-color="#5BFF21"/>
<stop offset="0.666667" stop-color="#21BCFF"/>
<stop offset="1" stop-color="#4021FF"/>
</linearGradient>
<linearGradient id="paint4_linear_1731_80317" x1="20.5051" y1="10.1379" x2="20.4755" y2="26.6809" gradientUnits="userSpaceOnUse">
<stop stop-color="#D3FF21"/>
<stop offset="0.145833" stop-color="#5BFF21"/>
<stop offset="0.666667" stop-color="#21BCFF"/>
<stop offset="1" stop-color="#4021FF"/>
</linearGradient>
<linearGradient id="paint5_linear_1731_80317" x1="20.5051" y1="10.1379" x2="20.4755" y2="26.6809" gradientUnits="userSpaceOnUse">
<stop stop-color="#D3FF21"/>
<stop offset="0.145833" stop-color="#5BFF21"/>
<stop offset="0.666667" stop-color="#21BCFF"/>
<stop offset="1" stop-color="#4021FF"/>
</linearGradient>
<linearGradient id="paint6_linear_1731_80317" x1="20.5051" y1="11.9797" x2="20.4755" y2="28.5227" gradientUnits="userSpaceOnUse">
<stop stop-color="#D3FF21"/>
<stop offset="0.145833" stop-color="#5BFF21"/>
<stop offset="0.666667" stop-color="#21BCFF"/>
<stop offset="1" stop-color="#4021FF"/>
</linearGradient>
<linearGradient id="paint7_linear_1731_80317" x1="20.5051" y1="11.9797" x2="20.4755" y2="28.5227" gradientUnits="userSpaceOnUse">
<stop stop-color="#D3FF21"/>
<stop offset="0.145833" stop-color="#5BFF21"/>
<stop offset="0.666667" stop-color="#21BCFF"/>
<stop offset="1" stop-color="#4021FF"/>
</linearGradient>
<linearGradient id="paint8_linear_1731_80317" x1="20.5051" y1="11.9797" x2="20.4755" y2="28.5227" gradientUnits="userSpaceOnUse">
<stop stop-color="#D3FF21"/>
<stop offset="0.145833" stop-color="#5BFF21"/>
<stop offset="0.666667" stop-color="#21BCFF"/>
<stop offset="1" stop-color="#4021FF"/>
</linearGradient>
<linearGradient id="paint9_linear_1731_80317" x1="32.2828" y1="26.1859" x2="38.5549" y2="31.9005" gradientUnits="userSpaceOnUse">
<stop stop-color="#D3FF21"/>
<stop offset="0.145833" stop-color="#5BFF21"/>
<stop offset="0.666667" stop-color="#A4E4FF" stop-opacity="0.46"/>
<stop offset="1" stop-color="#4021FF" stop-opacity="0"/>
</linearGradient>
<linearGradient id="paint10_linear_1731_80317" x1="41.3802" y1="19.7681" x2="31.5631" y2="28.7127" gradientUnits="userSpaceOnUse">
<stop stop-color="#D3FF21"/>
<stop offset="0.145833" stop-color="#5BFF21"/>
<stop offset="0.666667" stop-color="#A4E4FF" stop-opacity="0.46"/>
<stop offset="1" stop-color="#4021FF" stop-opacity="0"/>
</linearGradient>
<linearGradient id="paint11_linear_1731_80317" x1="20.5051" y1="13.8195" x2="20.4755" y2="30.3625" gradientUnits="userSpaceOnUse">
<stop stop-color="#D3FF21"/>
<stop offset="0.145833" stop-color="#5BFF21"/>
<stop offset="0.666667" stop-color="#21BCFF"/>
<stop offset="1" stop-color="#4021FF"/>
</linearGradient>
<linearGradient id="paint12_linear_1731_80317" x1="20.5051" y1="13.8195" x2="20.4755" y2="30.3625" gradientUnits="userSpaceOnUse">
<stop stop-color="#D3FF21"/>
<stop offset="0.145833" stop-color="#5BFF21"/>
<stop offset="0.666667" stop-color="#21BCFF"/>
<stop offset="1" stop-color="#4021FF"/>
</linearGradient>
<linearGradient id="paint13_linear_1731_80317" x1="20.5051" y1="13.8195" x2="20.4755" y2="30.3625" gradientUnits="userSpaceOnUse">
<stop stop-color="#D3FF21"/>
<stop offset="0.145833" stop-color="#5BFF21"/>
<stop offset="0.666667" stop-color="#21BCFF"/>
<stop offset="1" stop-color="#4021FF"/>
</linearGradient>
<linearGradient id="paint14_linear_1731_80317" x1="20.5051" y1="15.6593" x2="20.4755" y2="32.2024" gradientUnits="userSpaceOnUse">
<stop stop-color="#D3FF21"/>
<stop offset="0.145833" stop-color="#5BFF21"/>
<stop offset="0.666667" stop-color="#21BCFF"/>
<stop offset="1" stop-color="#4021FF"/>
</linearGradient>
<linearGradient id="paint15_linear_1731_80317" x1="20.5051" y1="15.6593" x2="20.4755" y2="32.2024" gradientUnits="userSpaceOnUse">
<stop stop-color="#D3FF21"/>
<stop offset="0.145833" stop-color="#5BFF21"/>
<stop offset="0.666667" stop-color="#21BCFF"/>
<stop offset="1" stop-color="#4021FF"/>
</linearGradient>
<linearGradient id="paint16_linear_1731_80317" x1="20.5051" y1="15.6593" x2="20.4755" y2="32.2024" gradientUnits="userSpaceOnUse">
<stop stop-color="#D3FF21"/>
<stop offset="0.145833" stop-color="#5BFF21"/>
<stop offset="0.666667" stop-color="#21BCFF"/>
<stop offset="1" stop-color="#4021FF"/>
</linearGradient>
<linearGradient id="paint17_linear_1731_80317" x1="20.4895" y1="15.6621" x2="20.4895" y2="32.2052" gradientUnits="userSpaceOnUse">
<stop stop-color="#D3FF21"/>
<stop offset="0.145833" stop-color="#5BFF21"/>
<stop offset="0.666667" stop-color="#21BCFF"/>
<stop offset="1" stop-color="#4021FF"/>
</linearGradient>
<linearGradient id="paint18_linear_1731_80317" x1="20.4895" y1="15.6621" x2="20.4895" y2="32.2052" gradientUnits="userSpaceOnUse">
<stop stop-color="#D3FF21"/>
<stop offset="0.145833" stop-color="#5BFF21"/>
<stop offset="0.666667" stop-color="#21BCFF"/>
<stop offset="1" stop-color="#4021FF"/>
</linearGradient>
<linearGradient id="paint19_linear_1731_80317" x1="20.4895" y1="15.6621" x2="20.4895" y2="32.2052" gradientUnits="userSpaceOnUse">
<stop stop-color="#D3FF21"/>
<stop offset="0.145833" stop-color="#5BFF21"/>
<stop offset="0.666667" stop-color="#21BCFF"/>
<stop offset="1" stop-color="#4021FF"/>
</linearGradient>
<linearGradient id="paint20_linear_1731_80317" x1="5.47396" y1="2.66797" x2="5.47396" y2="5.48702" gradientUnits="userSpaceOnUse">
<stop stop-color="#D3FF21"/>
<stop offset="0.145833" stop-color="#5BFF21"/>
<stop offset="0.666667" stop-color="#21BCFF"/>
<stop offset="1" stop-color="#4021FF"/>
</linearGradient>
<linearGradient id="paint21_linear_1731_80317" x1="3.79971" y1="4.65845" x2="3.79971" y2="5.93234" gradientUnits="userSpaceOnUse">
<stop stop-color="#D3FF21"/>
<stop offset="0.145833" stop-color="#5BFF21"/>
<stop offset="0.666667" stop-color="#21BCFF"/>
<stop offset="1" stop-color="#4021FF"/>
</linearGradient>
<linearGradient id="paint22_linear_1731_80317" x1="29.2581" y1="33.6811" x2="29.2581" y2="36.0475" gradientUnits="userSpaceOnUse">
<stop stop-color="#D3FF21"/>
<stop offset="0.145833" stop-color="#5BFF21"/>
<stop offset="0.666667" stop-color="#21BCFF"/>
<stop offset="1" stop-color="#4021FF"/>
</linearGradient>
<linearGradient id="paint23_linear_1731_80317" x1="30.341" y1="32.9084" x2="30.341" y2="33.9777" gradientUnits="userSpaceOnUse">
<stop stop-color="#D3FF21"/>
<stop offset="0.145833" stop-color="#5BFF21"/>
<stop offset="0.666667" stop-color="#21BCFF"/>
<stop offset="1" stop-color="#4021FF"/>
</linearGradient>
<linearGradient id="paint24_linear_1731_80317" x1="12.5987" y1="11.7324" x2="12.5987" y2="20.4715" gradientUnits="userSpaceOnUse">
<stop stop-color="#D3FF21"/>
<stop offset="0.145833" stop-color="#5BFF21"/>
<stop offset="0.666667" stop-color="#A4E4FF" stop-opacity="0.46"/>
<stop offset="1" stop-color="#4021FF" stop-opacity="0"/>
</linearGradient>
<linearGradient id="paint25_linear_1731_80317" x1="7.59107" y1="11.3243" x2="5.48774" y2="22.4666" gradientUnits="userSpaceOnUse">
<stop stop-color="#D3FF21"/>
<stop offset="0.145833" stop-color="#5BFF21"/>
<stop offset="0.666667" stop-color="#A4E4FF" stop-opacity="0.46"/>
<stop offset="1" stop-color="#4021FF" stop-opacity="0"/>
</linearGradient>
<linearGradient id="paint26_linear_1731_80317" x1="15.4786" y1="20.3125" x2="11.9155" y2="33.6103" gradientUnits="userSpaceOnUse">
<stop stop-color="#D3FF21"/>
<stop offset="0.145833" stop-color="#5BFF21"/>
<stop offset="0.666667" stop-color="#A4E4FF" stop-opacity="0.46"/>
<stop offset="1" stop-color="#4021FF" stop-opacity="0"/>
</linearGradient>
</defs>
</svg>
