<svg width="82" height="78" viewBox="0 0 82 78" fill="none" xmlns="http://www.w3.org/2000/svg">
    <g filter="url(#filter0_f_1686_81150)">
        <path d="M40.7909 7.52269C40.9464 7.10684 41.5346 7.10684 41.6901 7.52269L49.9573 29.632C50.0247 29.8124 50.1935 29.935 50.3859 29.9434L73.9678 30.9738C74.4113 30.9932 74.5931 31.5526 74.2457 31.829L55.7732 46.5237C55.6225 46.6436 55.558 46.842 55.6095 47.0276L61.9167 69.7738C62.0353 70.2016 61.5594 70.5473 61.1892 70.3023L41.5054 57.2748C41.3448 57.1685 41.1362 57.1685 40.9756 57.2748L21.2917 70.3023C20.9215 70.5473 20.4456 70.2016 20.5643 69.7738L26.8715 47.0276C26.9229 46.842 26.8585 46.6436 26.7078 46.5237L8.23528 31.829C7.88784 31.5526 8.0696 30.9932 8.51314 30.9738L32.095 29.9434C32.2875 29.935 32.4562 29.8124 32.5237 29.632L40.7909 7.52269Z" fill="url(#paint0_linear_1686_81150)"/>
    </g>
    <path d="M39.7555 13.0415C40.7195 12.7283 41.758 12.7283 42.722 13.0415L57.1069 17.7154C58.0709 18.0287 58.9111 18.6391 59.5069 19.4591L68.3972 31.6956C68.993 32.5157 69.3139 33.5033 69.3139 34.517V49.6421C69.3139 50.6558 68.993 51.6434 68.3972 52.4635L59.5069 64.7C58.9111 65.5201 58.0709 66.1305 57.1069 66.4437L42.722 71.1176C41.758 71.4309 40.7195 71.4309 39.7555 71.1176L25.3706 66.4437C24.4066 66.1305 23.5664 65.5201 22.9706 64.7L14.0803 52.4635C13.4845 51.6434 13.1636 50.6558 13.1636 49.6421V34.517C13.1636 33.5033 13.4845 32.5157 14.0803 31.6956L22.9706 19.4591C23.5664 18.6391 24.4066 18.0287 25.3706 17.7154L39.7555 13.0415Z" fill="url(#paint1_linear_1686_81150)"/>
    <path d="M40.824 13.2717C41.0091 12.9538 41.4684 12.9538 41.6535 13.2717L50.6756 28.7616C50.7434 28.878 50.8571 28.9606 50.9888 28.9891L68.5085 32.783C68.868 32.8608 69.01 33.2976 68.7648 33.5719L56.821 46.939C56.7312 47.0395 56.6878 47.1731 56.7014 47.3072L58.5072 65.1418C58.5442 65.5078 58.1727 65.7778 57.836 65.6294L41.4323 58.4009C41.309 58.3465 41.1685 58.3465 41.0452 58.4009L24.6415 65.6294C24.3048 65.7778 23.9333 65.5078 23.9703 65.1418L25.7761 47.3072C25.7897 47.1731 25.7463 47.0395 25.6565 46.939L13.7127 33.5719C13.4675 33.2976 13.6095 32.8608 13.969 32.783L31.4887 28.9891C31.6204 28.9606 31.7341 28.878 31.8019 28.7616L40.824 13.2717Z" fill="url(#paint2_linear_1686_81150)"/>
    <path d="M40.7659 15.2604C40.8587 14.7308 41.6188 14.7308 41.7116 15.2604L45.323 35.8901C45.3676 36.1453 45.6067 36.319 45.8632 36.2826L66.5992 33.3423C67.1315 33.2668 67.3664 33.9898 66.8914 34.2417L48.3873 44.0512C48.1585 44.1726 48.0672 44.4536 48.181 44.6863L57.3852 63.4988C57.6215 63.9818 57.0065 64.4286 56.6201 64.0546L41.5726 49.4876C41.3865 49.3074 41.091 49.3074 40.9049 49.4876L25.8574 64.0546C25.471 64.4286 24.856 63.9818 25.0923 63.4988L34.2965 44.6863C34.4103 44.4536 34.319 44.1726 34.0902 44.0512L15.5861 34.2417C15.1111 33.9898 15.346 33.2668 15.8783 33.3423L36.6143 36.2826C36.8708 36.319 37.1099 36.1453 37.1545 35.8901L40.7659 15.2604Z" fill="url(#paint3_linear_1686_81150)"/>
    <path d="M37.6779 32.9007C38.3762 28.9118 44.1013 28.9118 44.7996 32.9007V32.9007C45.136 34.8223 46.9365 36.1304 48.868 35.8565V35.8565C52.8775 35.288 54.6467 40.733 51.0688 42.6297V42.6297C49.3451 43.5435 48.6574 45.66 49.5148 47.4124V47.4124C51.2945 51.05 46.6627 54.4151 43.7532 51.5985V51.5985C42.3515 50.2416 40.126 50.2416 38.7243 51.5985V51.5985C35.8148 54.4151 31.183 51.05 32.9627 47.4124V47.4124C33.8201 45.66 33.1324 43.5435 31.4087 42.6297V42.6297C27.8308 40.733 29.6 35.288 33.6095 35.8565V35.8565C35.541 36.1304 37.3415 34.8223 37.6779 32.9007V32.9007Z" fill="url(#paint4_linear_1686_81150)"/>
    <defs>
        <filter id="filter0_f_1686_81150" x="0.854687" y="0.0109372" width="80.7711" height="77.5729" filterUnits="userSpaceOnUse" color-interpolation-filters="sRGB">
            <feFlood flood-opacity="0" result="BackgroundImageFix"/>
            <feBlend mode="normal" in="SourceGraphic" in2="BackgroundImageFix" result="shape"/>
            <feGaussianBlur stdDeviation="3.6" result="effect1_foregroundBlur_1686_81150"/>
        </filter>
        <linearGradient id="paint0_linear_1686_81150" x1="53.0005" y1="64.8803" x2="24.3606" y2="23.9693" gradientUnits="userSpaceOnUse">
            <stop stop-color="#3000BA"/>
            <stop offset="0.285227" stop-color="#0E5DEC"/>
            <stop offset="1" stop-color="#0EA9EC"/>
        </linearGradient>
        <linearGradient id="paint1_linear_1686_81150" x1="42.867" y1="71.5909" x2="18.1501" y2="25.9307" gradientUnits="userSpaceOnUse">
            <stop stop-color="#4409EC"/>
            <stop offset="0.75566" stop-color="#0E5DEC"/>
            <stop offset="1" stop-color="#A6EAFF"/>
        </linearGradient>
        <linearGradient id="paint2_linear_1686_81150" x1="36.9913" y1="12.5596" x2="59.87" y2="60.7342" gradientUnits="userSpaceOnUse">
            <stop stop-color="#A400D6"/>
            <stop offset="1" stop-color="#2207C4"/>
        </linearGradient>
        <linearGradient id="paint3_linear_1686_81150" x1="26.8274" y1="21.3923" x2="69.3726" y2="42.1033" gradientUnits="userSpaceOnUse">
            <stop stop-color="#3000BA"/>
            <stop offset="0.869792" stop-color="#0E5DEC"/>
            <stop offset="1" stop-color="#0EA9EC"/>
        </linearGradient>
        <linearGradient id="paint4_linear_1686_81150" x1="42.867" y1="71.5909" x2="18.1501" y2="25.9307" gradientUnits="userSpaceOnUse">
            <stop stop-color="#4409EC"/>
            <stop offset="1" stop-color="#0E5DEC"/>
        </linearGradient>
    </defs>
</svg>
