<svg width="40" height="42" viewBox="0 0 40 42" fill="none" xmlns="http://www.w3.org/2000/svg">
<g filter="url(#filter0_f_1900_78003)">
<circle cx="19.732" cy="31.066" r="6.4" fill="url(#paint0_linear_1900_78003)"/>
</g>
<path d="M36.2648 21.8668C36.2648 18.6232 35.303 15.4524 33.5009 12.7554C31.6989 10.0585 29.1376 7.95645 26.1409 6.71517C23.1441 5.4739 19.8467 5.14912 16.6654 5.78192C13.4841 6.41472 10.5619 7.97666 8.26829 10.2702C5.97471 12.5638 4.41276 15.486 3.77997 18.6673C3.14717 21.8486 3.47194 25.1461 4.71322 28.1428C5.9545 31.1395 8.05653 33.7008 10.7535 35.5029C13.4505 37.305 16.6212 38.2668 19.8648 38.2668V21.8668H36.2648Z" fill="url(#paint1_radial_1900_78003)"/>
<path d="M29.9938 34.765C27.5042 36.7201 24.502 37.9129 21.3495 38.1995C18.1971 38.486 15.029 37.8541 12.2277 36.38C9.42642 34.906 7.11159 32.6527 5.56257 29.8921C4.01356 27.1315 3.29657 23.9816 3.49812 20.8226C3.69968 17.6635 4.81116 14.6303 6.69845 12.089C8.58573 9.54763 11.1682 7.60679 14.1341 6.50065C17.1 5.39452 20.3227 5.17037 23.4132 5.85526C26.5037 6.54014 29.3299 8.10479 31.5508 10.3604L19.8648 21.8668L29.9938 34.765Z" fill="url(#paint2_linear_1900_78003)"/>
<path d="M28.6796 33.0867C26.5138 34.7874 23.9022 35.8251 21.1598 36.0744C18.4174 36.3237 15.6615 35.774 13.2246 34.4916C10.7876 33.2093 8.77393 31.2491 7.42642 28.8476C6.0789 26.4461 5.45518 23.706 5.63051 20.9579C5.80585 18.2098 6.77275 15.5711 8.41453 13.3604C10.0563 11.1496 12.3028 9.46123 14.8829 8.49898C17.463 7.53673 20.2665 7.34174 22.955 7.93754C25.6435 8.53333 28.1021 9.89445 30.0341 11.8566L19.8682 21.8663L28.6796 33.0867Z" fill="url(#paint3_linear_1900_78003)"/>
<g filter="url(#filter1_f_1900_78003)">
<circle cx="17.3333" cy="12.1341" r="5.33333" fill="#FFFF95"/>
</g>
<path d="M11.6648 36.0696C9.48631 34.8118 7.62631 33.0698 6.22874 30.9781C4.83117 28.8865 3.93349 26.5015 3.60515 24.0074C3.2768 21.5134 3.52659 18.9772 4.33519 16.5952C5.14379 14.2131 6.48953 12.049 8.26829 10.2702L12.9069 14.9089C11.8397 15.9761 11.0322 17.2746 10.5471 18.7038C10.0619 20.1331 9.91202 21.6548 10.109 23.1512C10.306 24.6476 10.8446 26.0786 11.6832 27.3336C12.5217 28.5886 13.6377 29.6338 14.9448 30.3885L11.6648 36.0696Z" fill="url(#paint4_linear_1900_78003)"/>
<path d="M18.1344 5.4668H27.7344M27.7344 5.4668V15.0668M27.7344 5.4668L17.3344 15.8668L13.7344 12.2668L2.73438 23.4668" stroke="#1E1E1E" stroke-width="2.13333" stroke-linecap="round"/>
<path d="M26 31.5996L26 26.5329" stroke="white" stroke-width="0.8" stroke-miterlimit="10" stroke-linecap="round" stroke-linejoin="round"/>
<path d="M28.668 31.5996L28.668 29.1996" stroke="white" stroke-width="0.8" stroke-miterlimit="10" stroke-linecap="round" stroke-linejoin="round"/>
<path d="M31.332 31.5996L31.332 27.8663" stroke="white" stroke-width="0.8" stroke-miterlimit="10" stroke-linecap="round" stroke-linejoin="round"/>
<path d="M34 31.5996L34 20.9329" stroke="white" stroke-width="0.8" stroke-miterlimit="10" stroke-linecap="round" stroke-linejoin="round"/>
<defs>
<filter id="filter0_f_1900_78003" x="9.33203" y="20.666" width="20.8008" height="20.8008" filterUnits="userSpaceOnUse" color-interpolation-filters="sRGB">
<feFlood flood-opacity="0" result="BackgroundImageFix"/>
<feBlend mode="normal" in="SourceGraphic" in2="BackgroundImageFix" result="shape"/>
<feGaussianBlur stdDeviation="2" result="effect1_foregroundBlur_1900_78003"/>
</filter>
<filter id="filter1_f_1900_78003" x="5.33333" y="0.134114" width="24.0013" height="23.9993" filterUnits="userSpaceOnUse" color-interpolation-filters="sRGB">
<feFlood flood-opacity="0" result="BackgroundImageFix"/>
<feBlend mode="normal" in="SourceGraphic" in2="BackgroundImageFix" result="shape"/>
<feGaussianBlur stdDeviation="3.33333" result="effect1_foregroundBlur_1900_78003"/>
</filter>
<linearGradient id="paint0_linear_1900_78003" x1="13.332" y1="24.666" x2="28.6367" y2="29.4454" gradientUnits="userSpaceOnUse">
<stop stop-color="#2170FF"/>
<stop offset="1" stop-color="#6934FF"/>
</linearGradient>
<radialGradient id="paint1_radial_1900_78003" cx="0" cy="0" r="1" gradientUnits="userSpaceOnUse" gradientTransform="translate(30.7982 25.7335) rotate(-93.8141) scale(10.0222)">
<stop stop-color="#FF0078"/>
<stop offset="1" stop-color="#FF543D"/>
</radialGradient>
<linearGradient id="paint2_linear_1900_78003" x1="19.8648" y1="38.2668" x2="19.8648" y2="5.4668" gradientUnits="userSpaceOnUse">
<stop stop-color="#5200FF"/>
<stop offset="0.265625" stop-color="#FF543D"/>
<stop offset="1" stop-color="#FFDA55"/>
</linearGradient>
<linearGradient id="paint3_linear_1900_78003" x1="19.8682" y1="36.1329" x2="19.8682" y2="7.59961" gradientUnits="userSpaceOnUse">
<stop stop-color="#FF0078"/>
<stop offset="0.666667" stop-color="#FF543D"/>
<stop offset="1" stop-color="#FFDA55"/>
</linearGradient>
<linearGradient id="paint4_linear_1900_78003" x1="11.8648" y1="-1.7332" x2="11.4649" y2="32.1335" gradientUnits="userSpaceOnUse">
<stop stop-color="#FF56A6"/>
<stop offset="0.666667" stop-color="#FF543D"/>
<stop offset="1" stop-color="#FFDA55"/>
</linearGradient>
</defs>
</svg>
