<svg width="160" height="40" viewBox="0 0 160 40" fill="none" xmlns="http://www.w3.org/2000/svg">
    <path d="M21.2678 20.0146L11.127 26.3527V39.0287L21.2678 32.6907V20.0146Z" fill="#FFF200"/>
    <path d="M11.1272 13.6761L0.986328 20.0141V7.33803L11.1272 1V13.6761Z" fill="#21DFF3"/>
    <path d="M21.268 20.0148L11.1272 26.3528L0.986328 20.0148L11.1272 13.6768L21.268 20.0148Z" fill="#FF0078"/>
    <path d="M0.986328 20.0148L11.1272 13.6768" stroke="#0C0D13" stroke-width="0.56338" stroke-miterlimit="10"/>
    <path d="M11.127 26.3527L21.2678 20.0146" stroke="#0C0D13" stroke-width="0.56338" stroke-miterlimit="10"/>
    <path d="M0.986328 32.6906L11.1272 26.3525V39.0286L0.986328 32.6906Z" fill="#A42EFF"/>
    <path d="M19.9441 19.1831L11.7891 14.0845C11.3807 13.831 11.1272 13.3803 11.1272 12.8873V1L0.986328 7.33803V18.4507C0.986328 19.4225 1.49337 20.3239 2.31027 20.8451L10.4652 25.9437C10.8737 26.1972 11.1272 26.6479 11.1272 27.1408V39.0282L21.268 32.6901V21.5775C21.268 20.6056 20.761 19.7042 19.9441 19.1831Z" stroke="#0C0D13" stroke-width="1.83099" stroke-miterlimit="10" stroke-linecap="round" stroke-linejoin="round"/>
    <path d="M11.1272 39.029L0.986328 32.691L10.4934 26.7051" stroke="#0C0D13" stroke-width="1.83099" stroke-miterlimit="10" stroke-linecap="round" stroke-linejoin="round"/>
    <path d="M41.8309 19.5921C41.9858 19.4512 42.1126 19.2963 42.2394 19.1273C42.3802 18.916 42.4929 18.6766 42.5492 18.4372C42.6196 18.1696 42.6478 17.8879 42.6478 17.6062C42.6478 17.1555 42.5774 16.7329 42.4225 16.3526C42.2675 15.9724 42.0563 15.6484 41.7746 15.3667C41.4084 15.0005 40.9858 14.7329 40.4929 14.5498C40.014 14.3667 39.507 14.2822 38.9718 14.2822H33.1689C32.9577 14.2822 32.8027 14.4512 32.8027 14.6484V25.8597C32.8027 26.071 32.9717 26.2259 33.1689 26.2259H39.183C39.7605 26.2259 40.3098 26.1273 40.8027 25.9301C41.2957 25.7329 41.7464 25.4512 42.1267 25.0991C42.4929 24.7611 42.7746 24.3667 42.9718 23.916C43.1689 23.4653 43.2675 22.9583 43.2675 22.4231C43.2675 21.6343 43.0563 20.9442 42.6337 20.3526C42.4365 20.0569 42.1548 19.7893 41.8309 19.5921ZM39.2253 23.7893H35.5351V21.0991H39.3239C39.521 21.0991 39.7041 21.1414 39.8872 21.2259C40.0703 21.3104 40.2394 21.4231 40.352 21.5498C40.5351 21.7611 40.6196 22.0428 40.6196 22.4231C40.6196 22.6203 40.5915 22.8034 40.5351 22.9583C40.4788 23.1132 40.3943 23.24 40.3098 23.3386C40.1689 23.4653 39.9999 23.578 39.8027 23.6625C39.6196 23.747 39.4365 23.7893 39.2253 23.7893ZM39.7464 18.3526C39.676 18.4372 39.5915 18.4935 39.4788 18.5498C39.3943 18.5921 39.2816 18.6203 39.1689 18.6203H35.5351V16.7329H38.8732C39.2253 16.7329 39.507 16.8315 39.7182 17.0146C39.8872 17.1695 39.9717 17.3949 39.9717 17.6907C39.9717 17.9583 39.9013 18.1836 39.7464 18.3526Z" fill="white"/>
    <path d="M48.2531 14.2822H46.2812C46.07 14.2822 45.915 14.4512 45.915 14.6484V25.8597C45.915 26.071 46.0841 26.2259 46.2812 26.2259H54.746C54.9573 26.2259 55.1122 26.0569 55.1122 25.8597V24.0991C55.1122 23.8879 54.9432 23.7329 54.746 23.7329H48.6333V14.6625C48.6333 14.4512 48.4643 14.2822 48.2531 14.2822Z" fill="white"/>
    <path d="M66.7046 15.7191C66.1553 15.1698 65.4792 14.7332 64.7187 14.4234C63.9581 14.1135 63.1131 13.9727 62.1976 13.9727C61.2539 13.9727 60.3807 14.1417 59.5919 14.4797C58.8032 14.8177 58.1271 15.2966 57.5638 15.8881C57.0285 16.4374 56.6201 17.0994 56.3243 17.8177C56.0285 18.5501 55.8877 19.3389 55.8877 20.1698C55.8877 20.9586 56.0426 21.7332 56.3384 22.4656C56.6342 23.1839 57.0426 23.8318 57.5497 24.367C58.099 24.9586 58.7891 25.4515 59.5778 25.8036C60.3666 26.1698 61.2539 26.3529 62.1976 26.3529C63.1412 26.3529 64.0004 26.1839 64.775 25.86C65.5356 25.536 66.2116 25.0712 66.7891 24.4938C67.3384 23.9445 67.7609 23.2825 68.0426 22.5501C68.3384 21.8177 68.4792 21.0149 68.4792 20.1558C68.4792 19.2966 68.3243 18.4797 68.0145 17.7332C67.7187 16.9727 67.2821 16.2966 66.7046 15.7191ZM65.7609 20.1417C65.7609 20.6628 65.6764 21.1558 65.5074 21.5783C65.3384 22.0149 65.099 22.3811 64.8173 22.7051C64.4933 23.0572 64.099 23.3248 63.6483 23.522C62.7469 23.9163 61.6342 23.9022 60.7469 23.5079C60.3102 23.3107 59.9159 23.029 59.606 22.6769C59.3102 22.367 59.0708 21.9867 58.9018 21.5501C58.7328 21.1276 58.6342 20.6487 58.6342 20.1276C58.6342 19.6065 58.7187 19.1135 58.9018 18.691C59.0849 18.2543 59.3102 17.8741 59.606 17.5642C59.93 17.2121 60.3243 16.9445 60.775 16.7473C61.2257 16.5501 61.7046 16.4515 62.2116 16.4515C62.7046 16.4515 63.1835 16.5501 63.6342 16.7473C64.0849 16.9445 64.4792 17.2121 64.8032 17.5501C65.099 17.86 65.3384 18.2262 65.5074 18.6628C65.6764 19.1135 65.7609 19.6065 65.7609 20.1417Z" fill="white"/>
    <path d="M73.7742 17.6202C74.0982 17.2962 74.4785 17.0427 74.9151 16.8596C75.8728 16.4652 77.0841 16.5357 77.9714 16.9159C78.3517 17.085 79.1686 17.7047 79.5207 17.9723C79.6193 18.0568 79.7602 18.0427 79.8447 17.9441L81.1968 16.423C81.2813 16.3244 81.2813 16.1695 81.1686 16.085C80.7038 15.7188 79.5348 14.8174 78.9432 14.5638C78.1968 14.2399 77.3094 14.085 76.3094 14.085C75.394 14.085 74.5348 14.2399 73.7742 14.5497C73.0137 14.8596 72.3376 15.2962 71.7742 15.8596C71.2249 16.423 70.7742 17.085 70.4785 17.8314C70.1686 18.5779 70.0137 19.3948 70.0137 20.254C70.0137 21.1413 70.1686 21.9582 70.4785 22.7047C70.7883 23.4512 71.239 24.1272 71.8165 24.6906C72.3799 25.2399 73.0559 25.6765 73.8024 26.0005C74.5489 26.3103 75.394 26.4652 76.2954 26.4652C77.2813 26.4652 78.1686 26.3103 78.9292 26.0005C79.5207 25.761 80.7038 24.8174 81.1686 24.4371C81.2813 24.3526 81.2813 24.1976 81.1968 24.099L79.8447 22.592C79.7602 22.4934 79.6193 22.4793 79.5207 22.5638C79.1686 22.8314 78.3517 23.4512 77.9573 23.6202C77.07 24.0145 75.8728 24.085 74.8869 23.6624C74.4362 23.4652 74.0418 23.1976 73.7179 22.8596C73.4221 22.5638 73.1827 22.1976 73.0137 21.761C72.8306 21.3244 72.7461 20.8314 72.7461 20.2681C72.7461 19.7469 72.8447 19.2399 73.0278 18.7892C73.2109 18.3244 73.4644 17.93 73.7742 17.6202Z" fill="white"/>
    <path d="M94.3384 14.2822H91.7328C91.5497 14.2822 91.3947 14.3667 91.2962 14.5076L88.3807 18.6062H86.606V14.6484C86.606 14.4372 86.437 14.2822 86.2398 14.2822H84.2539C84.0426 14.2822 83.8877 14.4512 83.8877 14.6484V25.8597C83.8877 26.071 84.0567 26.2259 84.2539 26.2259H86.2398C86.4511 26.2259 86.606 26.0569 86.606 25.8597V21.1132H88.4088L91.606 25.9865C91.7046 26.1414 91.8736 26.2259 92.0567 26.2259H94.5919C94.7328 26.2259 94.8173 26.071 94.7469 25.9442L90.7328 19.7752L94.4792 14.5357C94.5778 14.4512 94.4933 14.2822 94.3384 14.2822Z" fill="white"/>
    <path d="M99.6336 17.6202C99.9576 17.2962 100.338 17.0427 100.774 16.8596C101.732 16.4652 102.943 16.5357 103.831 16.9159C104.211 17.085 105.028 17.7047 105.38 17.9723C105.479 18.0568 105.62 18.0427 105.704 17.9441L107.056 16.423C107.141 16.3244 107.141 16.1695 107.028 16.085C106.563 15.7188 105.394 14.8174 104.803 14.5638C104.056 14.2399 103.169 14.085 102.169 14.085C101.253 14.085 100.394 14.2399 99.6336 14.5497C98.873 14.8596 98.197 15.2962 97.6336 15.8596C97.0843 16.423 96.6336 17.085 96.3378 17.8314C96.028 18.5779 95.873 19.3948 95.873 20.254C95.873 21.1413 96.028 21.9582 96.3378 22.7047C96.6477 23.4512 97.0984 24.1272 97.6759 24.6906C98.2392 25.2399 98.9153 25.6765 99.6618 26.0005C100.422 26.3103 101.253 26.4652 102.155 26.4652C103.141 26.4652 104.028 26.3103 104.789 26.0005C105.38 25.761 106.563 24.8174 107.028 24.4371C107.141 24.3526 107.141 24.1976 107.056 24.099L105.704 22.592C105.62 22.4934 105.479 22.4793 105.38 22.5638C105.028 22.8314 104.211 23.4512 103.817 23.6202C102.929 24.0145 101.732 24.085 100.746 23.6624C100.296 23.4652 99.9012 23.1976 99.5773 22.8596C99.2815 22.5638 99.0421 22.1976 98.873 21.761C98.6899 21.3244 98.6054 20.8314 98.6054 20.2681C98.6054 19.7469 98.704 19.2399 98.8871 18.7892C99.0702 18.3244 99.3238 17.93 99.6336 17.6202Z" fill="white"/>
    <path d="M117.464 18.4933H112.281V14.5356C112.281 14.3243 112.112 14.1553 111.901 14.1553H109.929C109.718 14.1553 109.549 14.3243 109.549 14.5356V25.7468C109.549 25.9581 109.718 26.113 109.929 26.113H111.901C112.112 26.113 112.281 25.944 112.281 25.7468V21.0003H117.464V25.7468C117.464 25.9581 117.633 26.113 117.845 26.113H119.816C120.028 26.113 120.197 25.944 120.197 25.7468V14.5356C120.197 14.3243 120.028 14.1553 119.816 14.1553H117.845C117.633 14.1553 117.464 14.3243 117.464 14.5356V18.4933Z" fill="white"/>
    <path d="M127.324 14.6058L122.281 25.9861C122.225 26.0988 122.309 26.2396 122.45 26.2396H124.732C124.943 26.2396 125.14 26.1129 125.225 25.9157L126 24.1833H131.535L132.324 25.9298C132.408 26.127 132.605 26.2537 132.817 26.2537H135.126C135.253 26.2537 135.338 26.1129 135.295 26.0002L130.253 14.6199C130.169 14.4227 129.971 14.296 129.76 14.296H127.845C127.605 14.2819 127.408 14.4087 127.324 14.6058ZM130.464 21.6622H127.042L128.732 17.3664L130.464 21.6622Z" fill="white"/>
    <path d="M137.746 26.24H139.69C139.901 26.24 140.07 26.071 140.07 25.8597V14.6625C140.07 14.4512 139.901 14.2822 139.69 14.2822H137.746C137.535 14.2822 137.366 14.4512 137.366 14.6625V25.8738C137.366 26.085 137.535 26.24 137.746 26.24Z" fill="white"/>
    <path d="M151.902 22.5634C152.113 22.4507 152.296 22.3239 152.479 22.1831C152.747 21.9718 153 21.7183 153.211 21.4507C153.789 20.7042 154.085 19.7887 154.085 18.7605C154.085 18.1126 153.958 17.5211 153.718 16.9859C153.479 16.4648 153.155 15.9859 152.747 15.5774C152.31 15.1549 151.817 14.831 151.254 14.6056C150.69 14.3803 150.099 14.2676 149.465 14.2676H143.944C143.732 14.2676 143.563 14.4366 143.563 14.6479V25.8591C143.563 26.0704 143.732 26.2394 143.944 26.2394H145.916C146.127 26.2394 146.296 26.0704 146.296 25.8591V23.1831H149.183L150.845 25.9718C150.944 26.1408 151.113 26.2394 151.31 26.2394H153.901C154 26.2394 154.071 26.1267 154.014 26.0422L151.902 22.5634ZM146.296 16.845H149.423C149.718 16.845 150 16.9014 150.268 17.0141C150.521 17.1267 150.718 17.2817 150.902 17.4929C151.211 17.831 151.366 18.2394 151.366 18.7746C151.366 19.0141 151.324 19.2676 151.24 19.4929C151.155 19.7183 151.028 19.9296 150.845 20.1267C150.704 20.2957 150.521 20.4225 150.296 20.5211C150.056 20.6197 149.803 20.676 149.521 20.676H146.296V16.845Z" fill="white"/>
</svg>
