<svg width="155" height="40" viewBox="0 0 155 40" fill="none" xmlns="http://www.w3.org/2000/svg">
    <g clip-path="url(#clip0_1043_15217)">
        <path d="M21.2678 20L11.127 26.338V39.0141L21.2678 32.6761V20Z" fill="#FFF200"/>
        <path d="M11.1267 13.6619L0.98584 19.9999V7.32387L11.1267 0.98584V13.6619Z" fill="#21DFF3"/>
        <path d="M21.2675 19.9996L11.1267 26.3377L0.98584 19.9996L11.1267 13.6616L21.2675 19.9996Z" fill="#FF0078"/>
        <path d="M0.98584 19.9996L11.1267 13.6616" stroke="black" stroke-width="0.56338" stroke-miterlimit="10"/>
        <path d="M11.127 26.338L21.2678 20" stroke="black" stroke-width="0.56338" stroke-miterlimit="10"/>
        <path d="M0.98584 32.6759L11.1267 26.3379V39.0139L0.98584 32.6759Z" fill="#A42EFF"/>
        <path d="M19.9436 19.1689L11.7887 14.0703C11.3802 13.8168 11.1267 13.3661 11.1267 12.8732V0.98584L0.98584 7.32387V18.4365C0.98584 19.4084 1.49288 20.3098 2.30978 20.8309L10.4647 25.9295C10.8732 26.183 11.1267 26.6337 11.1267 27.1267V39.014L21.2675 32.676V21.5633C21.2675 20.5915 20.7605 19.6901 19.9436 19.1689Z" stroke="black" stroke-width="1.83099" stroke-miterlimit="10" stroke-linecap="round" stroke-linejoin="round"/>
        <path d="M11.1267 39.0139L0.98584 32.6759L10.4929 26.6899" stroke="black" stroke-width="1.83099" stroke-miterlimit="10" stroke-linecap="round" stroke-linejoin="round"/>
        <path d="M41.8309 19.5774C41.9858 19.4366 42.1126 19.2817 42.2394 19.1126C42.3802 18.9014 42.4929 18.6619 42.5492 18.4225C42.6196 18.1549 42.6478 17.8732 42.6478 17.5915C42.6478 17.1408 42.5774 16.7183 42.4225 16.338C42.2675 15.9577 42.0563 15.6338 41.7746 15.3521C41.4084 14.9859 40.9858 14.7183 40.4929 14.5352C40.014 14.3521 39.507 14.2676 38.9718 14.2676H33.1689C32.9577 14.2676 32.8027 14.4366 32.8027 14.6338V25.845C32.8027 26.0563 32.9717 26.2112 33.1689 26.2112H39.183C39.7605 26.2112 40.3098 26.1126 40.8027 25.9155C41.2957 25.7183 41.7464 25.4366 42.1267 25.0845C42.4929 24.7465 42.7746 24.3521 42.9718 23.9014C43.1689 23.4507 43.2675 22.9436 43.2675 22.4084C43.2675 21.6197 43.0563 20.9295 42.6337 20.338C42.4365 20.0422 42.1548 19.7746 41.8309 19.5774ZM39.2253 23.7746H35.5351V21.0845H39.3239C39.521 21.0845 39.7041 21.1267 39.8872 21.2112C40.0703 21.2957 40.2394 21.4084 40.352 21.5352C40.5351 21.7465 40.6196 22.0281 40.6196 22.4084C40.6196 22.6056 40.5915 22.7887 40.5351 22.9436C40.4788 23.0986 40.3943 23.2253 40.3098 23.3239C40.1689 23.4507 39.9999 23.5634 39.8027 23.6479C39.6196 23.7324 39.4365 23.7746 39.2253 23.7746ZM39.7464 18.338C39.676 18.4225 39.5915 18.4788 39.4788 18.5352C39.3943 18.5774 39.2816 18.6056 39.1689 18.6056H35.5351V16.7183H38.8732C39.2253 16.7183 39.507 16.8169 39.7182 17C39.8872 17.1549 39.9717 17.3803 39.9717 17.676C39.9717 17.9436 39.9013 18.169 39.7464 18.338Z" fill="black"/>
        <path d="M48.2536 14.2676H46.2817C46.0705 14.2676 45.9155 14.4366 45.9155 14.6338V25.845C45.9155 26.0563 46.0845 26.2112 46.2817 26.2112H54.7465C54.9578 26.2112 55.1127 26.0422 55.1127 25.845V24.0845C55.1127 23.8732 54.9437 23.7183 54.7465 23.7183H48.6338V14.6479C48.6338 14.4366 48.4648 14.2676 48.2536 14.2676Z" fill="black"/>
        <path d="M66.7041 15.704C66.1548 15.1547 65.4788 14.7181 64.7182 14.4082C63.9576 14.0984 63.1126 13.9575 62.1971 13.9575C61.2534 13.9575 60.3802 14.1265 59.5914 14.4646C58.8027 14.8026 58.1266 15.2815 57.5633 15.873C57.0281 16.4223 56.6196 17.0843 56.3238 17.8026C56.0281 18.535 55.8872 19.3237 55.8872 20.1547C55.8872 20.9434 56.0421 21.7181 56.3379 22.4505C56.6337 23.1688 57.0421 23.8167 57.5492 24.3519C58.0985 24.9434 58.7886 25.4364 59.5773 25.7885C60.3661 26.1547 61.2534 26.3378 62.1971 26.3378C63.1407 26.3378 63.9999 26.1688 64.7745 25.8448C65.5351 25.5209 66.2112 25.0561 66.7886 24.4786C67.3379 23.9294 67.7604 23.2674 68.0421 22.535C68.3379 21.8026 68.4788 20.9998 68.4788 20.1406C68.4788 19.2815 68.3238 18.4646 68.014 17.7181C67.7182 16.9575 67.2816 16.2815 66.7041 15.704ZM65.7604 20.1265C65.7604 20.6477 65.6759 21.1406 65.5069 21.5632C65.3379 21.9998 65.0985 22.366 64.8168 22.6899C64.4928 23.042 64.0985 23.3096 63.6478 23.5068C62.7464 23.9012 61.6337 23.8871 60.7464 23.4927C60.3097 23.2955 59.9154 23.0139 59.6055 22.6617C59.3097 22.3519 59.0703 21.9716 58.9013 21.535C58.7323 21.1124 58.6337 20.6336 58.6337 20.1124C58.6337 19.5913 58.7182 19.0984 58.9013 18.6758C59.0844 18.2392 59.3097 17.8589 59.6055 17.5491C59.9295 17.197 60.3238 16.9294 60.7745 16.7322C61.2252 16.535 61.7041 16.4364 62.2112 16.4364C62.7041 16.4364 63.183 16.535 63.6337 16.7322C64.0844 16.9294 64.4788 17.197 64.8027 17.535C65.0985 17.8448 65.3379 18.211 65.5069 18.6477C65.6759 19.0984 65.7604 19.5913 65.7604 20.1265Z" fill="black"/>
        <path d="M73.7747 17.6055C74.0987 17.2816 74.479 17.0281 74.9156 16.845C75.8733 16.4506 77.0846 16.521 77.9719 16.9013C78.3522 17.0703 79.1691 17.69 79.5212 17.9576C79.6198 18.0421 79.7606 18.0281 79.8451 17.9295L81.1973 16.4083C81.2818 16.3097 81.2818 16.1548 81.1691 16.0703C80.7043 15.7041 79.5353 14.8027 78.9437 14.5492C78.1973 14.2252 77.3099 14.0703 76.3099 14.0703C75.3944 14.0703 74.5353 14.2252 73.7747 14.5351C73.0142 14.845 72.3381 15.2816 71.7747 15.845C71.2254 16.4083 70.7747 17.0703 70.4789 17.8168C70.1691 18.5633 70.0142 19.3802 70.0142 20.2393C70.0142 21.1266 70.1691 21.9436 70.4789 22.69C70.7888 23.4365 71.2395 24.1126 71.817 24.6759C72.3804 25.2252 73.0564 25.6619 73.8029 25.9858C74.5494 26.2957 75.3944 26.4506 76.2959 26.4506C77.2818 26.4506 78.1691 26.2957 78.9297 25.9858C79.5212 25.7464 80.7043 24.8027 81.1691 24.4224C81.2818 24.3379 81.2818 24.183 81.1973 24.0844L79.8451 22.5774C79.7606 22.4788 79.6198 22.4647 79.5212 22.5492C79.1691 22.8168 78.3522 23.4365 77.9578 23.6055C77.0705 23.9999 75.8733 24.0703 74.8874 23.6478C74.4367 23.4506 74.0423 23.183 73.7184 22.845C73.4226 22.5492 73.1832 22.183 73.0142 21.7464C72.8311 21.3097 72.7466 20.8168 72.7466 20.2534C72.7466 19.7323 72.8451 19.2252 73.0282 18.7745C73.2113 18.3097 73.4649 17.9154 73.7747 17.6055Z" fill="black"/>
        <path d="M94.3379 14.2676H91.7323C91.5492 14.2676 91.3943 14.3521 91.2957 14.4929L88.3802 18.5915H86.6055V14.6338C86.6055 14.4225 86.4365 14.2676 86.2393 14.2676H84.2534C84.0421 14.2676 83.8872 14.4366 83.8872 14.6338V25.845C83.8872 26.0563 84.0562 26.2112 84.2534 26.2112H86.2393C86.4506 26.2112 86.6055 26.0422 86.6055 25.845V21.0986H88.4083L91.6055 25.9718C91.7041 26.1267 91.8731 26.2112 92.0562 26.2112H94.5914C94.7323 26.2112 94.8168 26.0563 94.7464 25.9296L90.7323 19.7605L94.4788 14.5211C94.5773 14.4366 94.4928 14.2676 94.3379 14.2676Z" fill="black"/>
        <path d="M99.6336 17.6055C99.9576 17.2816 100.338 17.0281 100.774 16.845C101.732 16.4506 102.943 16.521 103.831 16.9013C104.211 17.0703 105.028 17.69 105.38 17.9576C105.479 18.0421 105.62 18.0281 105.704 17.9295L107.056 16.4083C107.141 16.3097 107.141 16.1548 107.028 16.0703C106.563 15.7041 105.394 14.8027 104.803 14.5492C104.056 14.2252 103.169 14.0703 102.169 14.0703C101.253 14.0703 100.394 14.2252 99.6336 14.5351C98.873 14.845 98.197 15.2816 97.6336 15.845C97.0843 16.4083 96.6336 17.0703 96.3378 17.8168C96.028 18.5633 95.873 19.3802 95.873 20.2393C95.873 21.1266 96.028 21.9436 96.3378 22.69C96.6477 23.4365 97.0984 24.1126 97.6759 24.6759C98.2392 25.2252 98.9153 25.6619 99.6618 25.9858C100.422 26.2957 101.253 26.4506 102.155 26.4506C103.141 26.4506 104.028 26.2957 104.789 25.9858C105.38 25.7464 106.563 24.8027 107.028 24.4224C107.141 24.3379 107.141 24.183 107.056 24.0844L105.704 22.5774C105.62 22.4788 105.479 22.4647 105.38 22.5492C105.028 22.8168 104.211 23.4365 103.817 23.6055C102.929 23.9999 101.732 24.0703 100.746 23.6478C100.296 23.4506 99.9012 23.183 99.5773 22.845C99.2815 22.5492 99.0421 22.183 98.873 21.7464C98.6899 21.3097 98.6054 20.8168 98.6054 20.2534C98.6054 19.7323 98.704 19.2252 98.8871 18.7745C99.0702 18.3097 99.3238 17.9154 99.6336 17.6055Z" fill="black"/>
        <path d="M117.465 18.4787H112.282V14.5209C112.282 14.3096 112.113 14.1406 111.901 14.1406H109.93C109.718 14.1406 109.549 14.3096 109.549 14.5209V25.7322C109.549 25.9434 109.718 26.0984 109.93 26.0984H111.901C112.113 26.0984 112.282 25.9294 112.282 25.7322V20.9857H117.465V25.7322C117.465 25.9434 117.634 26.0984 117.845 26.0984H119.817C120.028 26.0984 120.197 25.9294 120.197 25.7322V14.5209C120.197 14.3096 120.028 14.1406 119.817 14.1406H117.845C117.634 14.1406 117.465 14.3096 117.465 14.5209V18.4787Z" fill="black"/>
        <path d="M127.324 14.5912L122.282 25.9715C122.225 26.0842 122.31 26.225 122.451 26.225H124.733C124.944 26.225 125.141 26.0982 125.225 25.9011L126 24.1687H131.535L132.324 25.9151C132.409 26.1123 132.606 26.2391 132.817 26.2391H135.127C135.254 26.2391 135.338 26.0982 135.296 25.9856L130.254 14.6053C130.169 14.4081 129.972 14.2813 129.761 14.2813H127.845C127.606 14.2673 127.409 14.394 127.324 14.5912ZM130.465 21.6475H127.042L128.733 17.3518L130.465 21.6475Z" fill="black"/>
        <path d="M137.746 26.2253H139.69C139.901 26.2253 140.07 26.0563 140.07 25.845V14.6479C140.07 14.4366 139.901 14.2676 139.69 14.2676H137.746C137.535 14.2676 137.366 14.4366 137.366 14.6479V25.8591C137.366 26.0704 137.535 26.2253 137.746 26.2253Z" fill="black"/>
        <path d="M151.902 22.5492C152.113 22.4365 152.296 22.3098 152.479 22.1689C152.747 21.9576 153 21.7041 153.211 21.4365C153.789 20.69 154.085 19.7745 154.085 18.7464C154.085 18.0985 153.958 17.5069 153.718 16.9717C153.479 16.4506 153.155 15.9717 152.747 15.5633C152.31 15.1407 151.817 14.8168 151.254 14.5914C150.69 14.3661 150.099 14.2534 149.465 14.2534H143.944C143.732 14.2534 143.563 14.4224 143.563 14.6337V25.845C143.563 26.0562 143.732 26.2252 143.944 26.2252H145.916C146.127 26.2252 146.296 26.0562 146.296 25.845V23.1689H149.183L150.845 25.9576C150.944 26.1267 151.113 26.2252 151.31 26.2252H153.901C154 26.2252 154.071 26.1126 154.014 26.0281L151.902 22.5492ZM146.296 16.8309H149.423C149.718 16.8309 150 16.8872 150.268 16.9999C150.521 17.1126 150.718 17.2675 150.902 17.4788C151.211 17.8168 151.366 18.2252 151.366 18.7605C151.366 18.9999 151.324 19.2534 151.24 19.4788C151.155 19.7041 151.028 19.9154 150.845 20.1126C150.704 20.2816 150.521 20.4083 150.296 20.5069C150.056 20.6055 149.803 20.6619 149.521 20.6619H146.296V16.8309Z" fill="black"/>
    </g>
    <defs>
        <clipPath id="clip0_1043_15217">
            <rect width="155" height="40" fill="white"/>
        </clipPath>
    </defs>
</svg>
